<svg xmlns="http://www.w3.org/2000/svg" xmlns:xlink="http://www.w3.org/1999/xlink" width="500" zoomAndPan="magnify" viewBox="0 0 375 374.999991" height="500" preserveAspectRatio="xMidYMid meet" version="1.0"><defs><g/><clipPath id="2896489965"><path d="M 23.851562 23.851562 L 351.148438 23.851562 L 351.148438 351.148438 L 23.851562 351.148438 Z M 23.851562 23.851562 " clip-rule="nonzero"/></clipPath><clipPath id="a9fe14f63e"><path d="M 187.5 23.851562 C 97.121094 23.851562 23.851562 97.121094 23.851562 187.5 C 23.851562 277.878906 97.121094 351.148438 187.5 351.148438 C 277.878906 351.148438 351.148438 277.878906 351.148438 187.5 C 351.148438 97.121094 277.878906 23.851562 187.5 23.851562 Z M 187.5 23.851562 " clip-rule="nonzero"/></clipPath><clipPath id="dcb1427ace"><path d="M 23.851562 23.851562 L 350.851562 23.851562 L 350.851562 350.851562 L 23.851562 350.851562 Z M 23.851562 23.851562 " clip-rule="nonzero"/></clipPath><clipPath id="f46ac08089"><path d="M 187.496094 23.851562 C 97.117188 23.851562 23.851562 97.117188 23.851562 187.496094 C 23.851562 277.878906 97.117188 351.144531 187.496094 351.144531 C 277.878906 351.144531 351.144531 277.878906 351.144531 187.496094 C 351.144531 97.117188 277.878906 23.851562 187.496094 23.851562 Z M 187.496094 23.851562 " clip-rule="nonzero"/></clipPath></defs><g clip-path="url(#2896489965)"><g clip-path="url(#a9fe14f63e)"><path fill="#ffffff" d="M 23.851562 23.851562 L 351.148438 23.851562 L 351.148438 351.148438 L 23.851562 351.148438 Z M 23.851562 23.851562 " fill-opacity="1" fill-rule="nonzero"/></g></g><g clip-path="url(#dcb1427ace)"><g clip-path="url(#f46ac08089)"><path stroke-linecap="butt" transform="matrix(0.75, 0, 0, 0.75, 23.851105, 23.851101)" fill="none" stroke-linejoin="miter" d="M 218.193332 0.000615662 C 97.688116 0.000615662 0.000609662 97.688122 0.000609662 218.193338 C 0.000609662 338.703763 97.688116 436.391269 218.193332 436.391269 C 338.703757 436.391269 436.391263 338.703763 436.391263 218.193338 C 436.391263 97.688122 338.703757 0.000615662 218.193332 0.000615662 Z M 218.193332 0.000615662 " stroke="#000000" stroke-width="16" stroke-opacity="1" stroke-miterlimit="4"/></g></g><g fill="#000000" fill-opacity="1"><g transform="translate(132.152017, 148.957109)"><g><path d="M 32.296875 -32.679688 L 59.75 -66.496094 L 45.882812 -66.496094 L 18.617188 -32.964844 L 18.617188 -66.496094 L 7.503906 -66.496094 L 7.503906 0 L 18.617188 0 L 18.617188 -18.238281 L 24.890625 -25.269531 L 45.40625 0 L 59.941406 0 Z M 32.296875 -32.679688 "/></g></g></g><g fill="#000000" fill-opacity="1"><g transform="translate(189.716974, 148.957109)"><g><path d="M 38.1875 -7.695312 L 41.132812 0 L 53.101562 0 L 26.503906 -68.394531 L 0 0 L 11.96875 0 L 14.820312 -7.695312 Z M 18.429688 -17.289062 L 26.503906 -40.371094 L 34.578125 -17.289062 Z M 18.429688 -17.289062 "/></g></g></g><g fill="#000000" fill-opacity="1"><g transform="translate(134.296548, 224.707104)"><g><path d="M 18.617188 -55.382812 L 51.867188 -55.382812 L 51.867188 -66.496094 L 7.503906 -66.496094 L 7.503906 0 L 18.617188 0 L 18.617188 -27.738281 L 46.261719 -27.738281 L 46.261719 -38.757812 L 18.617188 -38.757812 Z M 18.617188 -55.382812 "/></g></g></g><g fill="#000000" fill-opacity="1"><g transform="translate(185.59202, 224.707104)"><g><path d="M 18.617188 -55.382812 L 51.867188 -55.382812 L 51.867188 -66.496094 L 7.503906 -66.496094 L 7.503906 0 L 18.617188 0 L 18.617188 -27.738281 L 46.261719 -27.738281 L 46.261719 -38.757812 L 18.617188 -38.757812 Z M 18.617188 -55.382812 "/></g></g></g><g fill="#000000" fill-opacity="1"><g transform="translate(133.534829, 300.457099)"><g><path d="M 18.617188 -55.382812 L 51.867188 -55.382812 L 51.867188 -66.496094 L 7.503906 -66.496094 L 7.503906 0 L 51.867188 0 L 51.867188 -11.113281 L 18.617188 -11.113281 L 18.617188 -27.738281 L 46.261719 -27.738281 L 46.261719 -38.757812 L 18.617188 -38.757812 Z M 18.617188 -55.382812 "/></g></g></g><g fill="#000000" fill-opacity="1"><g transform="translate(185.590246, 300.457099)"><g><path d="M 18.617188 -55.382812 L 51.867188 -55.382812 L 51.867188 -66.496094 L 7.503906 -66.496094 L 7.503906 0 L 51.867188 0 L 51.867188 -11.113281 L 18.617188 -11.113281 L 18.617188 -27.738281 L 46.261719 -27.738281 L 46.261719 -38.757812 L 18.617188 -38.757812 Z M 18.617188 -55.382812 "/></g></g></g><g fill="#000000" fill-opacity="1"><g transform="translate(135.897055, 323.362508)"><g><path d="M 6.21875 -7.71875 C 5.875 -7.90625 5.507812 -8.050781 5.125 -8.15625 C 4.75 -8.269531 4.394531 -8.328125 4.0625 -8.328125 C 3.539062 -8.328125 3.128906 -8.210938 2.828125 -7.984375 C 2.535156 -7.753906 2.390625 -7.441406 2.390625 -7.046875 C 2.390625 -6.660156 2.5625 -6.34375 2.90625 -6.09375 C 3.257812 -5.84375 3.765625 -5.597656 4.421875 -5.359375 C 4.898438 -5.179688 5.304688 -4.988281 5.640625 -4.78125 C 5.984375 -4.582031 6.265625 -4.300781 6.484375 -3.9375 C 6.703125 -3.582031 6.8125 -3.128906 6.8125 -2.578125 C 6.8125 -2.066406 6.6875 -1.609375 6.4375 -1.203125 C 6.1875 -0.796875 5.828125 -0.472656 5.359375 -0.234375 C 4.898438 -0.00390625 4.359375 0.109375 3.734375 0.109375 C 3.148438 0.109375 2.585938 0.015625 2.046875 -0.171875 C 1.515625 -0.359375 1.046875 -0.597656 0.640625 -0.890625 L 1.203125 -1.890625 C 1.515625 -1.640625 1.894531 -1.429688 2.34375 -1.265625 C 2.800781 -1.097656 3.222656 -1.015625 3.609375 -1.015625 C 4.117188 -1.015625 4.5625 -1.144531 4.9375 -1.40625 C 5.3125 -1.664062 5.5 -2.050781 5.5 -2.5625 C 5.5 -3 5.335938 -3.34375 5.015625 -3.59375 C 4.703125 -3.851562 4.257812 -4.09375 3.6875 -4.3125 C 3.164062 -4.507812 2.726562 -4.703125 2.375 -4.890625 C 2.019531 -5.085938 1.71875 -5.351562 1.46875 -5.6875 C 1.21875 -6.019531 1.09375 -6.4375 1.09375 -6.9375 C 1.09375 -7.675781 1.347656 -8.269531 1.859375 -8.71875 C 2.378906 -9.175781 3.050781 -9.421875 3.875 -9.453125 C 4.882812 -9.453125 5.820312 -9.203125 6.6875 -8.703125 Z M 6.21875 -7.71875 "/></g></g></g><g fill="#000000" fill-opacity="1"><g transform="translate(146.801734, 323.362508)"><g><path d="M 2.609375 -9.40625 L 2.609375 0 L 1.359375 0 L 1.359375 -9.40625 Z M 2.609375 -9.40625 "/></g></g></g><g fill="#000000" fill-opacity="1"><g transform="translate(154.106515, 323.362508)"><g><path d="M 9.546875 -9.40625 L 9.546875 0.3125 L 9.5 0.3125 L 2.59375 -6.6875 L 2.625 0 L 1.359375 0 L 1.359375 -9.6875 L 1.421875 -9.6875 L 8.3125 -2.59375 L 8.28125 -9.40625 Z M 9.546875 -9.40625 "/></g></g></g><g fill="#000000" fill-opacity="1"><g transform="translate(168.338175, 323.362508)"><g><path d="M 8.25 -0.703125 C 7.945312 -0.503906 7.5625 -0.316406 7.09375 -0.140625 C 6.632812 0.0234375 6.132812 0.109375 5.59375 0.109375 C 4.625 0.109375 3.773438 -0.101562 3.046875 -0.53125 C 2.316406 -0.957031 1.753906 -1.53125 1.359375 -2.25 C 0.960938 -2.96875 0.765625 -3.757812 0.765625 -4.625 C 0.765625 -5.550781 0.960938 -6.382812 1.359375 -7.125 C 1.765625 -7.863281 2.316406 -8.441406 3.015625 -8.859375 C 3.722656 -9.285156 4.523438 -9.5 5.421875 -9.5 C 5.953125 -9.5 6.445312 -9.429688 6.90625 -9.296875 C 7.363281 -9.160156 7.773438 -8.976562 8.140625 -8.75 L 7.625 -7.5625 C 6.90625 -8.050781 6.179688 -8.296875 5.453125 -8.296875 C 4.847656 -8.296875 4.285156 -8.132812 3.765625 -7.8125 C 3.253906 -7.488281 2.84375 -7.050781 2.53125 -6.5 C 2.226562 -5.957031 2.078125 -5.351562 2.078125 -4.6875 C 2.078125 -4.007812 2.21875 -3.398438 2.5 -2.859375 C 2.78125 -2.316406 3.179688 -1.890625 3.703125 -1.578125 C 4.234375 -1.273438 4.84375 -1.125 5.53125 -1.125 C 6.363281 -1.125 7.09375 -1.359375 7.71875 -1.828125 Z M 8.25 -0.703125 "/></g></g></g><g fill="#000000" fill-opacity="1"><g transform="translate(180.698405, 323.362508)"><g><path d="M 7.46875 -9.40625 L 7.46875 -8.1875 L 2.609375 -8.1875 L 2.609375 -5.328125 L 6.9375 -5.328125 L 6.9375 -4.125 L 2.609375 -4.125 L 2.609375 -1.21875 L 7.640625 -1.21875 L 7.640625 0 L 1.359375 0 L 1.359375 -9.40625 Z M 7.46875 -9.40625 "/></g></g></g><g fill="#000000" fill-opacity="1"><g transform="translate(192.525799, 323.362508)"><g/></g></g><g fill="#000000" fill-opacity="1"><g transform="translate(199.973539, 323.362508)"><g><path d="M 6.53125 -1.21875 L 6.53125 0 L 0.703125 0 L 1.125 -0.421875 C 2.007812 -1.304688 2.695312 -2.019531 3.1875 -2.5625 C 3.6875 -3.113281 4.101562 -3.664062 4.4375 -4.21875 C 4.769531 -4.78125 4.9375 -5.316406 4.9375 -5.828125 C 4.9375 -6.347656 4.78125 -6.75 4.46875 -7.03125 C 4.15625 -7.3125 3.773438 -7.453125 3.328125 -7.453125 C 2.972656 -7.453125 2.675781 -7.375 2.4375 -7.21875 C 2.195312 -7.070312 2.019531 -6.882812 1.90625 -6.65625 C 1.800781 -6.4375 1.75 -6.21875 1.75 -6 C 1.75 -5.4375 1.921875 -4.976562 2.265625 -4.625 L 1.5 -3.921875 C 1.207031 -4.097656 0.972656 -4.390625 0.796875 -4.796875 C 0.617188 -5.210938 0.53125 -5.601562 0.53125 -5.96875 C 0.53125 -6.445312 0.648438 -6.890625 0.890625 -7.296875 C 1.128906 -7.710938 1.472656 -8.039062 1.921875 -8.28125 C 2.367188 -8.53125 2.90625 -8.65625 3.53125 -8.65625 C 4.0625 -8.65625 4.53125 -8.53125 4.9375 -8.28125 C 5.351562 -8.039062 5.671875 -7.710938 5.890625 -7.296875 C 6.117188 -6.878906 6.234375 -6.421875 6.234375 -5.921875 C 6.234375 -5.429688 6.113281 -4.9375 5.875 -4.4375 C 5.644531 -3.945312 5.359375 -3.484375 5.015625 -3.046875 C 4.679688 -2.617188 4.226562 -2.082031 3.65625 -1.4375 L 3.453125 -1.21875 Z M 6.53125 -1.21875 "/></g></g></g><g fill="#000000" fill-opacity="1"><g transform="translate(210.397361, 323.362508)"><g><path d="M 4.0625 0.03125 C 3.351562 0.03125 2.726562 -0.140625 2.1875 -0.484375 C 1.644531 -0.835938 1.222656 -1.34375 0.921875 -2 C 0.617188 -2.65625 0.46875 -3.425781 0.46875 -4.3125 C 0.46875 -5.726562 0.785156 -6.804688 1.421875 -7.546875 C 2.054688 -8.285156 2.9375 -8.648438 4.0625 -8.640625 C 4.757812 -8.640625 5.378906 -8.46875 5.921875 -8.125 C 6.460938 -7.78125 6.882812 -7.273438 7.1875 -6.609375 C 7.488281 -5.953125 7.640625 -5.1875 7.640625 -4.3125 C 7.640625 -3.414062 7.488281 -2.632812 7.1875 -1.96875 C 6.882812 -1.3125 6.460938 -0.8125 5.921875 -0.46875 C 5.378906 -0.125 4.757812 0.0390625 4.0625 0.03125 Z M 4.046875 -1.171875 C 4.773438 -1.171875 5.335938 -1.457031 5.734375 -2.03125 C 6.128906 -2.601562 6.332031 -3.375 6.34375 -4.34375 C 6.332031 -5.289062 6.128906 -6.039062 5.734375 -6.59375 C 5.335938 -7.15625 4.773438 -7.4375 4.046875 -7.4375 C 3.316406 -7.4375 2.753906 -7.15625 2.359375 -6.59375 C 1.972656 -6.03125 1.773438 -5.269531 1.765625 -4.3125 C 1.773438 -3.351562 1.972656 -2.585938 2.359375 -2.015625 C 2.753906 -1.453125 3.316406 -1.171875 4.046875 -1.171875 Z M 4.046875 -1.171875 "/></g></g></g><g fill="#000000" fill-opacity="1"><g transform="translate(221.847866, 323.362508)"><g><path d="M 6.53125 -1.21875 L 6.53125 0 L 0.703125 0 L 1.125 -0.421875 C 2.007812 -1.304688 2.695312 -2.019531 3.1875 -2.5625 C 3.6875 -3.113281 4.101562 -3.664062 4.4375 -4.21875 C 4.769531 -4.78125 4.9375 -5.316406 4.9375 -5.828125 C 4.9375 -6.347656 4.78125 -6.75 4.46875 -7.03125 C 4.15625 -7.3125 3.773438 -7.453125 3.328125 -7.453125 C 2.972656 -7.453125 2.675781 -7.375 2.4375 -7.21875 C 2.195312 -7.070312 2.019531 -6.882812 1.90625 -6.65625 C 1.800781 -6.4375 1.75 -6.21875 1.75 -6 C 1.75 -5.4375 1.921875 -4.976562 2.265625 -4.625 L 1.5 -3.921875 C 1.207031 -4.097656 0.972656 -4.390625 0.796875 -4.796875 C 0.617188 -5.210938 0.53125 -5.601562 0.53125 -5.96875 C 0.53125 -6.445312 0.648438 -6.890625 0.890625 -7.296875 C 1.128906 -7.710938 1.472656 -8.039062 1.921875 -8.28125 C 2.367188 -8.53125 2.90625 -8.65625 3.53125 -8.65625 C 4.0625 -8.65625 4.53125 -8.53125 4.9375 -8.28125 C 5.351562 -8.039062 5.671875 -7.710938 5.890625 -7.296875 C 6.117188 -6.878906 6.234375 -6.421875 6.234375 -5.921875 C 6.234375 -5.429688 6.113281 -4.9375 5.875 -4.4375 C 5.644531 -3.945312 5.359375 -3.484375 5.015625 -3.046875 C 4.679688 -2.617188 4.226562 -2.082031 3.65625 -1.4375 L 3.453125 -1.21875 Z M 6.53125 -1.21875 "/></g></g></g><g fill="#000000" fill-opacity="1"><g transform="translate(232.271682, 323.362508)"><g><path d="M 3.71875 -5.40625 C 4.375 -5.375 4.914062 -5.148438 5.34375 -4.734375 C 5.769531 -4.316406 5.984375 -3.6875 5.984375 -2.84375 C 5.984375 -2.257812 5.847656 -1.742188 5.578125 -1.296875 C 5.304688 -0.847656 4.9375 -0.5 4.46875 -0.25 C 4.007812 -0.0078125 3.503906 0.109375 2.953125 0.109375 C 2.546875 0.109375 2.132812 0.0195312 1.71875 -0.15625 C 1.300781 -0.332031 0.957031 -0.554688 0.6875 -0.828125 L 1.34375 -1.875 C 1.507812 -1.664062 1.738281 -1.488281 2.03125 -1.34375 C 2.320312 -1.195312 2.617188 -1.125 2.921875 -1.125 C 3.421875 -1.125 3.835938 -1.285156 4.171875 -1.609375 C 4.515625 -1.941406 4.6875 -2.378906 4.6875 -2.921875 C 4.6875 -3.410156 4.539062 -3.800781 4.25 -4.09375 C 3.957031 -4.382812 3.5625 -4.53125 3.0625 -4.53125 C 2.675781 -4.53125 2.304688 -4.460938 1.953125 -4.328125 L 1.90625 -4.375 L 3.828125 -7.34375 L 1.203125 -7.34375 L 1.203125 -8.546875 L 5.6875 -8.546875 Z M 3.71875 -5.40625 "/></g></g></g><g fill="#000000" fill-opacity="1"><g transform="translate(138.732992, 70.70707)"><g><path d="M 8.25 -0.703125 C 7.945312 -0.503906 7.5625 -0.316406 7.09375 -0.140625 C 6.632812 0.0234375 6.132812 0.109375 5.59375 0.109375 C 4.625 0.109375 3.773438 -0.101562 3.046875 -0.53125 C 2.316406 -0.957031 1.753906 -1.53125 1.359375 -2.25 C 0.960938 -2.96875 0.765625 -3.757812 0.765625 -4.625 C 0.765625 -5.550781 0.960938 -6.382812 1.359375 -7.125 C 1.765625 -7.863281 2.316406 -8.441406 3.015625 -8.859375 C 3.722656 -9.285156 4.523438 -9.5 5.421875 -9.5 C 5.953125 -9.5 6.445312 -9.429688 6.90625 -9.296875 C 7.363281 -9.160156 7.773438 -8.976562 8.140625 -8.75 L 7.625 -7.5625 C 6.90625 -8.050781 6.179688 -8.296875 5.453125 -8.296875 C 4.847656 -8.296875 4.285156 -8.132812 3.765625 -7.8125 C 3.253906 -7.488281 2.84375 -7.050781 2.53125 -6.5 C 2.226562 -5.957031 2.078125 -5.351562 2.078125 -4.6875 C 2.078125 -4.007812 2.21875 -3.398438 2.5 -2.859375 C 2.78125 -2.316406 3.179688 -1.890625 3.703125 -1.578125 C 4.234375 -1.273438 4.84375 -1.125 5.53125 -1.125 C 6.363281 -1.125 7.09375 -1.359375 7.71875 -1.828125 Z M 8.25 -0.703125 "/></g></g></g><g fill="#000000" fill-opacity="1"><g transform="translate(151.093223, 70.70707)"><g><path d="M 8.796875 0 L 7.546875 0 L 7.546875 -4.125 L 2.609375 -4.125 L 2.609375 0 L 1.359375 0 L 1.359375 -9.40625 L 2.609375 -9.40625 L 2.609375 -5.328125 L 7.546875 -5.328125 L 7.546875 -9.40625 L 8.796875 -9.40625 Z M 8.796875 0 "/></g></g></g><g fill="#000000" fill-opacity="1"><g transform="translate(164.584106, 70.70707)"><g><path d="M 6.53125 0 L 4.3125 -3.46875 C 4.25 -3.457031 4.144531 -3.453125 4 -3.453125 L 2.609375 -3.453125 L 2.609375 0 L 1.359375 0 L 1.359375 -9.40625 L 3.859375 -9.40625 C 4.503906 -9.40625 5.078125 -9.289062 5.578125 -9.0625 C 6.078125 -8.832031 6.46875 -8.5 6.75 -8.0625 C 7.039062 -7.625 7.1875 -7.097656 7.1875 -6.484375 C 7.1875 -5.898438 7.054688 -5.363281 6.796875 -4.875 C 6.546875 -4.394531 6.15625 -4.03125 5.625 -3.78125 L 8 0 Z M 3.984375 -4.6875 C 4.648438 -4.6875 5.132812 -4.863281 5.4375 -5.21875 C 5.738281 -5.570312 5.890625 -5.976562 5.890625 -6.4375 C 5.890625 -6.707031 5.828125 -6.976562 5.703125 -7.25 C 5.578125 -7.519531 5.375 -7.742188 5.09375 -7.921875 C 4.820312 -8.097656 4.476562 -8.1875 4.0625 -8.1875 L 2.609375 -8.1875 L 2.609375 -4.6875 Z M 3.984375 -4.6875 "/></g></g></g><g fill="#000000" fill-opacity="1"><g transform="translate(176.502469, 70.70707)"><g><path d="M 2.609375 -9.40625 L 2.609375 0 L 1.359375 0 L 1.359375 -9.40625 Z M 2.609375 -9.40625 "/></g></g></g><g fill="#000000" fill-opacity="1"><g transform="translate(183.807249, 70.70707)"><g><path d="M 6.21875 -7.71875 C 5.875 -7.90625 5.507812 -8.050781 5.125 -8.15625 C 4.75 -8.269531 4.394531 -8.328125 4.0625 -8.328125 C 3.539062 -8.328125 3.128906 -8.210938 2.828125 -7.984375 C 2.535156 -7.753906 2.390625 -7.441406 2.390625 -7.046875 C 2.390625 -6.660156 2.5625 -6.34375 2.90625 -6.09375 C 3.257812 -5.84375 3.765625 -5.597656 4.421875 -5.359375 C 4.898438 -5.179688 5.304688 -4.988281 5.640625 -4.78125 C 5.984375 -4.582031 6.265625 -4.300781 6.484375 -3.9375 C 6.703125 -3.582031 6.8125 -3.128906 6.8125 -2.578125 C 6.8125 -2.066406 6.6875 -1.609375 6.4375 -1.203125 C 6.1875 -0.796875 5.828125 -0.472656 5.359375 -0.234375 C 4.898438 -0.00390625 4.359375 0.109375 3.734375 0.109375 C 3.148438 0.109375 2.585938 0.015625 2.046875 -0.171875 C 1.515625 -0.359375 1.046875 -0.597656 0.640625 -0.890625 L 1.203125 -1.890625 C 1.515625 -1.640625 1.894531 -1.429688 2.34375 -1.265625 C 2.800781 -1.097656 3.222656 -1.015625 3.609375 -1.015625 C 4.117188 -1.015625 4.5625 -1.144531 4.9375 -1.40625 C 5.3125 -1.664062 5.5 -2.050781 5.5 -2.5625 C 5.5 -3 5.335938 -3.34375 5.015625 -3.59375 C 4.703125 -3.851562 4.257812 -4.09375 3.6875 -4.3125 C 3.164062 -4.507812 2.726562 -4.703125 2.375 -4.890625 C 2.019531 -5.085938 1.71875 -5.351562 1.46875 -5.6875 C 1.21875 -6.019531 1.09375 -6.4375 1.09375 -6.9375 C 1.09375 -7.675781 1.347656 -8.269531 1.859375 -8.71875 C 2.378906 -9.175781 3.050781 -9.421875 3.875 -9.453125 C 4.882812 -9.453125 5.820312 -9.203125 6.6875 -8.703125 Z M 6.21875 -7.71875 "/></g></g></g><g fill="#000000" fill-opacity="1"><g transform="translate(194.711929, 70.70707)"><g><path d="M 6.90625 -9.40625 L 6.90625 -8.1875 L 4.375 -8.1875 L 4.375 0 L 3.125 0 L 3.125 -8.1875 L 0.65625 -8.1875 L 0.65625 -9.40625 Z M 6.90625 -9.40625 "/></g></g></g><g fill="#000000" fill-opacity="1"><g transform="translate(205.616609, 70.70707)"><g><path d="M 2.609375 -9.40625 L 2.609375 0 L 1.359375 0 L 1.359375 -9.40625 Z M 2.609375 -9.40625 "/></g></g></g><g fill="#000000" fill-opacity="1"><g transform="translate(212.921389, 70.70707)"><g><path d="M 6.28125 -2.46875 L 2.671875 -2.46875 L 1.65625 0 L 0.421875 0 L 4.53125 -9.78125 L 4.609375 -9.78125 L 8.703125 0 L 7.25 0 Z M 5.84375 -3.5625 L 4.515625 -7 L 3.125 -3.5625 Z M 5.84375 -3.5625 "/></g></g></g><g fill="#000000" fill-opacity="1"><g transform="translate(225.372589, 70.70707)"><g><path d="M 9.546875 -9.40625 L 9.546875 0.3125 L 9.5 0.3125 L 2.59375 -6.6875 L 2.625 0 L 1.359375 0 L 1.359375 -9.6875 L 1.421875 -9.6875 L 8.3125 -2.59375 L 8.28125 -9.40625 Z M 9.546875 -9.40625 "/></g></g></g></svg>